<svg xmlns="http://www.w3.org/2000/svg" viewBox="0 0 64 64" role="img" aria-label="TechBuddy icon">
  <defs>
    <linearGradient id="g" x1="0" y1="0" x2="1" y2="1">
      <stop offset="0%" stop-color="#1B6B4A"/>
      <stop offset="100%" stop-color="#2D9E6B"/>
    </linearGradient>
  </defs>
  <rect x="4" y="4" width="56" height="56" rx="14" fill="url(#g)"/>
  <path d="M20 21h24a3 3 0 0 1 3 3v9a3 3 0 0 1-3 3h-8l-5.5 6a1.3 1.3 0 0 1-2.3-.8V36h-8a3 3 0 0 1-3-3v-9a3 3 0 0 1 3-3Z" fill="#ffffff"/>
  <circle cx="26" cy="28.5" r="2" fill="#1B6B4A"/>
  <circle cx="38" cy="28.5" r="2" fill="#1B6B4A"/>
  <rect x="26" y="31.5" width="12" height="2.8" rx="1.4" fill="#1B6B4A"/>
</svg>
